<svg width="34" height="34" viewBox="0 0 34 34" fill="none" xmlns="http://www.w3.org/2000/svg">
<path d="M25.925 8.08949C25.3725 7.53699 24.48 7.53699 23.9275 8.08949L17 15.0028L10.0725 8.07532C9.52002 7.52282 8.62752 7.52282 8.07502 8.07532C7.52252 8.62782 7.52252 9.52033 8.07502 10.0728L15.0025 17.0003L8.07502 23.9278C7.52252 24.4803 7.52252 25.3728 8.07502 25.9253C8.62752 26.4778 9.52002 26.4778 10.0725 25.9253L17 18.9978L23.9275 25.9253C24.48 26.4778 25.3725 26.4778 25.925 25.9253C26.4775 25.3728 26.4775 24.4803 25.925 23.9278L18.9975 17.0003L25.925 10.0728C26.4634 9.53449 26.4634 8.62782 25.925 8.08949Z" fill="#333333"/>
</svg>
